<svg width="19" height="18" viewBox="0 0 19 18" fill="none" xmlns="http://www.w3.org/2000/svg">
<path d="M17.586 18C15.436 18 13.3404 17.5207 11.299 16.562C9.25771 15.6033 7.44938 14.3367 5.87405 12.762C4.29871 11.1873 3.03205 9.379 2.07405 7.337C1.11605 5.295 0.636714 3.19933 0.636047 1.05C0.636047 0.75 0.736047 0.5 0.936047 0.3C1.13605 0.0999999 1.38605 0 1.68605 0H5.73605C5.96938 0 6.17771 0.0749999 6.36105 0.225C6.54438 0.375 6.65271 0.566667 6.68605 0.8L7.33605 4.3C7.36938 4.53333 7.36505 4.746 7.32305 4.938C7.28105 5.13 7.18538 5.30067 7.03605 5.45L4.63605 7.9C5.33605 9.1 6.21105 10.225 7.26105 11.275C8.31105 12.325 9.46938 13.2333 10.736 14L13.086 11.65C13.236 11.5 13.432 11.3877 13.674 11.313C13.916 11.2383 14.1534 11.2173 14.386 11.25L17.836 11.95C18.0694 12 18.261 12.1127 18.411 12.288C18.561 12.4633 18.636 12.6673 18.636 12.9V16.95C18.636 17.25 18.536 17.5 18.336 17.7C18.136 17.9 17.886 18 17.586 18Z" fill="white"/>
</svg>
