<svg width="33" height="34" viewBox="0 0 33 34" fill="none" xmlns="http://www.w3.org/2000/svg">
<path d="M30.6042 33.25C26.7222 33.25 22.9384 32.3845 19.2526 30.6536C15.5669 28.9227 12.3019 26.6356 9.4575 23.7925C6.61315 20.9494 4.32611 17.6843 2.59639 13.9974C0.866667 10.3104 0.0012037 6.52657 0 2.64583C0 2.10417 0.180555 1.65278 0.541667 1.29167C0.902778 0.930555 1.35417 0.75 1.89583 0.75H9.20833C9.62963 0.75 10.0058 0.885416 10.3368 1.15625C10.6678 1.42708 10.8634 1.77315 10.9236 2.19444L12.0972 8.51389C12.1574 8.93519 12.1496 9.31917 12.0738 9.66583C11.9979 10.0125 11.8252 10.3206 11.5556 10.5903L10.4246 11.7448C8.53332 13.6755 8.12267 16.6742 9.83585 18.7644C10.4938 19.5672 11.2025 20.3483 11.9618 21.1076C12.741 21.8868 13.5532 22.6228 14.3984 23.3155C16.5345 25.0662 19.609 24.6549 21.5619 22.702L22.4792 21.7847C22.75 21.5139 23.1039 21.3111 23.5408 21.1763C23.9778 21.0414 24.4063 21.0035 24.8264 21.0625L31.0556 22.3264C31.4769 22.4167 31.8229 22.6201 32.0938 22.9367C32.3646 23.2532 32.5 23.6216 32.5 24.0417V31.3542C32.5 31.8958 32.3194 32.3472 31.9583 32.7083C31.5972 33.0694 31.1458 33.25 30.6042 33.25Z" fill="white"/>
</svg>
