<svg width="67" height="69" viewBox="0 0 67 69" fill="none" xmlns="http://www.w3.org/2000/svg">
<path d="M52.8146 0.787829L52.9119 30.9124L36.1641 4.26573C35.477 3.17017 34.2907 2.51542 32.9941 2.51542C32.2908 2.51542 31.6004 2.71315 31.004 3.08914L30.5632 3.36788L30.6021 1.94499C30.6312 0.953157 31.4578 0.16876 32.4529 0.197932" fill="#0158DB"/>
<path d="M52.8146 0.787829L52.9119 30.9124L36.1641 4.26573C35.477 3.17017 34.2907 2.51542 32.9941 2.51542C32.2908 2.51542 31.6004 2.71315 31.004 3.08914L30.5632 3.36788L30.6021 1.94499C30.6312 0.953157 31.4578 0.16876 32.4529 0.197932" fill="url(#paint0_linear_3_216)"/>
<path d="M54.5552 37.1818L60.4965 46.6367L60.4058 49.9104C60.3798 50.9054 59.5501 51.6866 58.5582 51.6607L53.7255 51.5278L52.98 51.5051L31.0429 50.8957C30.0478 50.8665 29.2667 50.04 29.2926 49.0449L30.4984 5.70562L32.038 4.73648C32.3362 4.54848 32.6668 4.46094 32.9942 4.46094C33.5938 4.46094 34.1772 4.75917 34.5176 5.30371L52.9249 34.592L53.7384 35.8853L54.5552 37.1688V37.1818Z" fill="#0158DB"/>
<path d="M54.5552 37.1818L60.4965 46.6367L60.4058 49.9104C60.3798 50.9054 59.5501 51.6866 58.5582 51.6607L53.7255 51.5278L52.98 51.5051L31.0429 50.8957C30.0478 50.8665 29.2667 50.04 29.2926 49.0449L30.4984 5.70562L32.038 4.73648C32.3362 4.54848 32.6668 4.46094 32.9942 4.46094C33.5938 4.46094 34.1772 4.75917 34.5176 5.30371L52.9249 34.592L53.7384 35.8853L54.5552 37.1688V37.1818Z" fill="url(#paint1_linear_3_216)"/>
<path d="M61.7152 2.8104L60.5938 43.1386L54.5423 33.5055L54.4353 0.810547L59.9682 0.962878C60.96 0.99205 61.7444 1.81856 61.7152 2.8104Z" fill="#0158DB"/>
<path d="M61.7152 2.8104L60.5938 43.1386L54.5423 33.5055L54.4353 0.810547L59.9682 0.962878C60.96 0.99205 61.7444 1.81856 61.7152 2.8104Z" fill="url(#paint2_linear_3_216)"/>
<path d="M54.6005 51.5221L53.7254 51.5254H52.9798V51.5026L52.9247 34.5896L53.7383 35.8829L54.5551 37.1664V37.1794L54.6005 51.5221Z" fill="white"/>
<path d="M62.2176 49.3766L60.4965 46.6378L54.5552 37.1829V37.1699L53.7384 35.8864L52.9248 34.5931L34.5175 5.3048C34.1772 4.76027 33.5938 4.46204 32.9941 4.46204C32.6668 4.46204 32.3361 4.54958 32.0379 4.73758L30.4983 5.70672L6.16595 20.9959C5.32646 21.5274 5.07364 22.636 5.60197 23.4787L33.2988 67.5505C33.6424 68.0951 34.2258 68.3933 34.8255 68.3933C35.1528 68.3933 35.4834 68.3058 35.7784 68.1178L61.6536 51.8595C62.4931 51.3279 62.7459 50.2194 62.2176 49.3766ZM15.355 31.7537L10.8367 24.6294L11.929 23.9357L16.4506 31.0601L15.355 31.7537ZM16.8233 21.3784L20.5119 19.0576C20.7971 18.8793 21.1699 18.9636 21.3482 19.2488L25.5359 25.9097C25.7142 26.1917 25.6267 26.5676 25.3447 26.7459L21.6529 29.0667C21.3709 29.245 20.9949 29.1575 20.8166 28.8755L16.6321 22.2146C16.4538 21.9294 16.5381 21.5566 16.8233 21.3784ZM22.2395 42.732L17.7212 35.6076L18.8167 34.914L23.3351 42.0383L22.2395 42.732ZM28.842 53.0069L24.3237 45.8825L25.416 45.1889L29.9376 52.31L28.842 53.0069ZM35.2857 63.2915L30.7641 56.1671L31.8597 55.4735L36.378 62.5979L35.2857 63.2915Z" fill="#F7528E"/>
<path d="M62.2176 49.3766L60.4965 46.6378L54.5552 37.1829V37.1699L53.7384 35.8864L52.9248 34.5931L34.5175 5.3048C34.1772 4.76027 33.5938 4.46204 32.9941 4.46204C32.6668 4.46204 32.3361 4.54958 32.0379 4.73758L30.4983 5.70672L6.16595 20.9959C5.32646 21.5274 5.07364 22.636 5.60197 23.4787L33.2988 67.5505C33.6424 68.0951 34.2258 68.3933 34.8255 68.3933C35.1528 68.3933 35.4834 68.3058 35.7784 68.1178L61.6536 51.8595C62.4931 51.3279 62.7459 50.2194 62.2176 49.3766ZM15.355 31.7537L10.8367 24.6294L11.929 23.9357L16.4506 31.0601L15.355 31.7537ZM16.8233 21.3784L20.5119 19.0576C20.7971 18.8793 21.1699 18.9636 21.3482 19.2488L25.5359 25.9097C25.7142 26.1917 25.6267 26.5676 25.3447 26.7459L21.6529 29.0667C21.3709 29.245 20.9949 29.1575 20.8166 28.8755L16.6321 22.2146C16.4538 21.9294 16.5381 21.5566 16.8233 21.3784ZM22.2395 42.732L17.7212 35.6076L18.8167 34.914L23.3351 42.0383L22.2395 42.732ZM28.842 53.0069L24.3237 45.8825L25.416 45.1889L29.9376 52.31L28.842 53.0069ZM35.2857 63.2915L30.7641 56.1671L31.8597 55.4735L36.378 62.5979L35.2857 63.2915Z" fill="url(#paint3_linear_3_216)"/>
<path d="M10.1236 54.959C11.3892 54.959 12.4152 53.9331 12.4152 52.6675C12.4152 51.4019 11.3892 50.3759 10.1236 50.3759C8.85801 50.3759 7.83203 51.4019 7.83203 52.6675C7.83203 53.9331 8.85801 54.959 10.1236 54.959Z" fill="#0158DB"/>
<path d="M19.2284 1.928C19.2284 2.56005 18.7162 3.07218 18.0842 3.07218C17.4521 3.07218 16.94 2.56005 16.94 1.928C16.94 1.29595 17.4521 0.783813 18.0842 0.783813C18.713 0.783813 19.2284 1.29595 19.2284 1.928Z" fill="#0158DB"/>
<defs>
<linearGradient id="paint0_linear_3_216" x1="13.4258" y1="-3.53409" x2="22.3953" y2="44.3825" gradientUnits="userSpaceOnUse">
<stop stop-color="#3BC3E1"/>
<stop offset="0.491416" stop-color="#1C32FF"/>
<stop offset="0.984375" stop-color="#FF6DCE"/>
</linearGradient>
<linearGradient id="paint1_linear_3_216" x1="5.36382" y1="-1.27287" x2="20.426" y2="71.8378" gradientUnits="userSpaceOnUse">
<stop stop-color="#3BC3E1"/>
<stop offset="0.491416" stop-color="#1C32FF"/>
<stop offset="0.984375" stop-color="#FF6DCE"/>
</linearGradient>
<linearGradient id="paint2_linear_3_216" x1="48.8523" y1="-4.33138" x2="82.1154" y2="37.6763" gradientUnits="userSpaceOnUse">
<stop stop-color="#3BC3E1"/>
<stop offset="0.491416" stop-color="#1C32FF"/>
<stop offset="0.984375" stop-color="#FF6DCE"/>
</linearGradient>
<linearGradient id="paint3_linear_3_216" x1="-7.01822" y1="-7.64356" x2="43.9765" y2="75.1749" gradientUnits="userSpaceOnUse">
<stop offset="0.181437" stop-color="#FAFF01"/>
<stop offset="0.644519" stop-color="#FE007A"/>
<stop offset="1" stop-color="#FF4848"/>
</linearGradient>
</defs>
</svg>
