<svg width="67" height="69" viewBox="0 0 67 69" fill="none" xmlns="http://www.w3.org/2000/svg">
<path d="M57.2292 0.908203L37.8047 31.9463L33.6979 25.7787L50.2504 0.908203H57.2292Z" fill="#0158DB"/>
<path d="M57.2292 0.908203L37.8047 31.9463L33.6979 25.7787L50.2504 0.908203H57.2292Z" fill="url(#paint0_linear_3_255)"/>
<path d="M39.0903 35.7648L28.1268 35.5292L26.8742 33.528C27.2112 33.4057 27.5542 33.2954 27.9002 33.1969L8.28174 1.84863H15.2606L32.4424 27.6645L35.8036 32.7138C36.2599 32.7854 36.7103 32.8778 37.1547 32.9882L37.1964 32.9196L37.259 33.012L39.0903 35.7648Z" fill="#0158DB"/>
<path d="M39.0903 35.7648L28.1268 35.5292L26.8742 33.528C27.2112 33.4057 27.5542 33.2954 27.9002 33.1969L8.28174 1.84863H15.2606L32.4424 27.6645L35.8036 32.7138C36.2599 32.7854 36.7103 32.8778 37.1547 32.9882L37.1964 32.9196L37.259 33.012L39.0903 35.7648Z" fill="url(#paint1_linear_3_255)"/>
<path d="M38.8217 33.4746C38.3117 33.2957 37.7898 33.1406 37.2589 33.0094C37.2261 33.0004 37.1903 32.9915 37.1545 32.9856C36.7101 32.8752 36.2598 32.7827 35.8035 32.7112C34.864 32.559 33.9007 32.4785 32.9194 32.4785C31.5505 32.4785 30.2174 32.6336 28.9379 32.9259C28.586 33.0034 28.24 33.0929 27.9 33.1943C27.5541 33.2927 27.2111 33.4031 26.8741 33.5254C26.543 33.6446 26.212 33.7729 25.8899 33.9131C19.4985 36.645 15.0189 42.9886 15.0189 50.3791C15.0189 60.2658 23.0357 68.2796 32.9194 68.2796C42.8062 68.2796 50.82 60.2658 50.82 50.3791C50.82 42.5591 45.8095 35.9143 38.8217 33.4746ZM39.4719 60.4597L32.9194 57.015L26.37 60.4597L27.6197 53.1646L22.3229 47.9991L29.6447 46.9343L32.9194 40.2984L36.1942 46.9343L43.519 47.9991L38.2192 53.1646L39.4719 60.4597Z" fill="url(#paint2_linear_3_255)"/>
<path d="M8.28156 64.1713C8.99313 64.1713 9.56999 63.5945 9.56999 62.8829C9.56999 62.1713 8.99313 61.5945 8.28156 61.5945C7.56999 61.5945 6.99316 62.1713 6.99316 62.8829C6.99316 63.5945 7.56999 64.1713 8.28156 64.1713Z" fill="#0158DB"/>
<path d="M50.8201 33.7702C51.5317 33.7702 52.1086 33.1933 52.1086 32.4818C52.1086 31.7702 51.5317 31.1934 50.8201 31.1934C50.1086 31.1934 49.5317 31.7702 49.5317 32.4818C49.5317 33.1933 50.1086 33.7702 50.8201 33.7702Z" fill="#0158DB"/>
<defs>
<linearGradient id="paint0_linear_3_255" x1="32.9283" y1="8.67926" x2="49.7321" y2="25.7177" gradientUnits="userSpaceOnUse">
<stop stop-color="#3BC3E1"/>
<stop offset="0.491416" stop-color="#1C32FF"/>
<stop offset="0.984375" stop-color="#FF6DCE"/>
</linearGradient>
<linearGradient id="paint1_linear_3_255" x1="7.27422" y1="10.3403" x2="25.2954" y2="32.234" gradientUnits="userSpaceOnUse">
<stop stop-color="#3BC3E1"/>
<stop offset="0.491416" stop-color="#1C32FF"/>
<stop offset="0.984375" stop-color="#FF6DCE"/>
</linearGradient>
<linearGradient id="paint2_linear_3_255" x1="7.28845" y1="25.6995" x2="34.3128" y2="74.7812" gradientUnits="userSpaceOnUse">
<stop offset="0.181437" stop-color="#FAFF01"/>
<stop offset="1" stop-color="#FF4848"/>
</linearGradient>
</defs>
</svg>
