<svg width="67" height="73" viewBox="0 0 67 73" fill="none" xmlns="http://www.w3.org/2000/svg">
<path d="M50.6562 37.1747C49.4004 41.7693 47.4392 46.0019 44.8353 49.7581C41.9065 53.9723 38.1318 57.614 33.6037 60.5872C29.0793 57.6103 25.3046 53.9723 22.3758 49.7581C19.7682 46.0019 17.8107 41.7693 16.555 37.1747C15.1588 32.0667 14.9446 27.6199 14.9705 25.0825C19.1588 24.4066 27.6093 22.5451 33.6074 17.9395C39.6092 22.5451 48.0523 24.4066 52.2443 25.0825C52.2628 27.6199 52.0523 32.0667 50.6562 37.1747Z" fill="#0F4B86"/>
<path d="M62.1983 16.9815C62.1983 16.9815 43.1071 15.216 33.604 5.71289C24.1045 15.216 5.00966 16.9815 5.00966 16.9815C5.00966 16.9815 0.810254 52.6191 33.604 72.3936C66.3977 52.6228 62.1983 16.9815 62.1983 16.9815ZM33.604 64.0576C9.00961 49.2286 12.1601 22.4994 12.1601 22.4994C12.1601 22.4994 26.4831 21.1735 33.604 14.0526C40.7323 21.1772 55.0516 22.4994 55.0516 22.4994C55.0516 22.4994 58.1984 49.2286 33.604 64.0576Z" fill="#0F4B86"/>
<path d="M50.6562 37.1747C49.4004 41.7693 47.4392 46.0019 44.8353 49.7581C41.9065 53.9723 38.1318 57.614 33.6037 60.5872C29.0793 57.6103 25.3046 53.9723 22.3758 49.7581C19.7682 46.0019 17.8107 41.7693 16.555 37.1747C15.1588 32.0667 14.9446 27.6199 14.9705 25.0825C19.1588 24.4066 27.6093 22.5451 33.6074 17.9395C39.6092 22.5451 48.0523 24.4066 52.2443 25.0825C52.2628 27.6199 52.0523 32.0667 50.6562 37.1747Z" fill="#0F4B86"/>
<path d="M62.1983 16.9815C62.1983 16.9815 43.1071 15.216 33.604 5.71289C24.1045 15.216 5.00966 16.9815 5.00966 16.9815C5.00966 16.9815 0.810254 52.6191 33.604 72.3936C66.3977 52.6228 62.1983 16.9815 62.1983 16.9815ZM33.604 64.0576C9.00961 49.2286 12.1601 22.4994 12.1601 22.4994C12.1601 22.4994 26.4831 21.1735 33.604 14.0526C40.7323 21.1772 55.0516 22.4994 55.0516 22.4994C55.0516 22.4994 58.1984 49.2286 33.604 64.0576Z" fill="#0F4B86"/>
<path d="M62.1983 16.9815C62.1983 16.9815 43.1071 15.216 33.604 5.71289C24.1045 15.216 5.00966 16.9815 5.00966 16.9815C5.00966 16.9815 0.810254 52.6191 33.604 72.3936C66.3977 52.6228 62.1983 16.9815 62.1983 16.9815ZM33.604 64.0576C9.00961 49.2286 12.1601 22.4994 12.1601 22.4994C12.1601 22.4994 26.4831 21.1735 33.604 14.0526C40.7323 21.1772 55.0516 22.4994 55.0516 22.4994C55.0516 22.4994 58.1984 49.2286 33.604 64.0576Z" fill="url(#paint0_linear_3_180)"/>
<path d="M65.7994 10.4066C63.4615 10.7649 61.0792 10.7021 58.7266 10.4472C56.3739 10.1739 54.0359 9.66793 51.783 8.88492C51.2179 8.69656 50.6638 8.47126 50.1098 8.25704C49.5632 8.01697 49.0129 7.78798 48.4774 7.51836C47.4026 6.99759 46.361 6.40664 45.3749 5.73444C43.3952 4.40851 41.615 2.76865 40.23 0.855469C42.1025 2.28482 44.0047 3.57381 46.036 4.63381C46.5346 4.91082 47.0554 5.1509 47.5614 5.40944C48.0859 5.63843 48.5918 5.89696 49.12 6.11117C50.1652 6.56546 51.2289 6.97544 52.3111 7.34108C54.4681 8.09085 56.6841 8.68548 58.9334 9.18409C61.1901 9.68639 63.4689 10.0853 65.7994 10.4066Z" fill="#F56AA1"/>
<path d="M1.68929 34.8652C1.76316 36.4165 1.91829 37.9455 2.15467 39.4561C2.38366 40.9667 2.67543 42.4552 3.04846 43.9215C3.77607 46.8577 4.82499 49.6869 6.1657 52.3609L6.68278 53.3581C6.86007 53.6868 7.0558 54.0045 7.24047 54.3295C7.41775 54.6582 7.62089 54.9721 7.82033 55.2898C8.02347 55.6037 8.21184 55.9287 8.42976 56.2316C9.25338 57.4837 10.1915 58.6544 11.1555 59.8179C13.1352 62.093 15.3844 64.1539 17.811 66.104C14.9597 64.852 12.3337 63.0533 10.0401 60.8779C9.49345 60.3091 8.9099 59.7662 8.4076 59.1531C8.14906 58.8502 7.88312 58.5584 7.63566 58.2445L6.91177 57.299C5.98104 56.0137 5.13155 54.6619 4.41873 53.2399C2.99677 50.3997 2.01431 47.3416 1.54525 44.2206C1.30887 42.662 1.18699 41.0886 1.20176 39.5189C1.22762 37.9529 1.33473 36.3832 1.68929 34.8652Z" fill="#F56AA1"/>
<path d="M50.6562 37.1718C49.4004 41.7663 47.4392 45.999 44.8353 49.7552C41.9065 53.9694 38.1318 57.611 33.6037 60.5842C29.0793 57.6074 25.3046 53.9694 22.3758 49.7552C19.7682 45.999 17.8107 41.7663 16.555 37.1718C15.1588 32.0638 14.9446 27.6169 14.9705 25.0796C19.1588 24.4037 27.6093 22.5422 33.6074 17.9365C39.6092 22.5422 48.0523 24.4037 52.2443 25.0796C52.2628 27.6169 52.0523 32.0638 50.6562 37.1718Z" fill="#F7528E"/>
<path d="M50.6562 37.1718C49.4004 41.7663 47.4392 45.999 44.8353 49.7552C41.9065 53.9694 38.1318 57.611 33.6037 60.5842C29.0793 57.6074 25.3046 53.9694 22.3758 49.7552C19.7682 45.999 17.8107 41.7663 16.555 37.1718C15.1588 32.0638 14.9446 27.6169 14.9705 25.0796C19.1588 24.4037 27.6093 22.5422 33.6074 17.9365C39.6092 22.5422 48.0523 24.4037 52.2443 25.0796C52.2628 27.6169 52.0523 32.0638 50.6562 37.1718Z" fill="url(#paint1_linear_3_180)"/>
<defs>
<linearGradient id="paint0_linear_3_180" x1="2.95344" y1="22.4078" x2="38.6897" y2="63.6494" gradientUnits="userSpaceOnUse">
<stop stop-color="#3BC3E1"/>
<stop offset="0.491416" stop-color="#1C32FF"/>
<stop offset="0.984375" stop-color="#FF6DCE"/>
</linearGradient>
<linearGradient id="paint1_linear_3_180" x1="-2.37744" y1="11.0262" x2="49.9757" y2="52.2816" gradientUnits="userSpaceOnUse">
<stop offset="0.181437" stop-color="#FAFF01"/>
<stop offset="1" stop-color="#FF4848"/>
</linearGradient>
</defs>
</svg>
