<svg width="85" height="68" viewBox="0 0 85 68" fill="none" xmlns="http://www.w3.org/2000/svg">
<path d="M73.4277 47.5988C73.0322 48.5049 72.5932 49.3892 72.1074 50.2487C70.0771 53.8701 67.312 57.0557 63.9926 59.5686C59.8885 62.6825 55.0215 64.7034 49.9209 65.4165L49.0085 65.5441V63.6945L49.6656 63.6042C58.0918 62.4271 65.5838 57.4293 69.9806 50.2518C70.6439 49.1713 71.2355 48.0409 71.7493 46.8701L73.4277 47.5988Z" fill="#0158DB"/>
<path d="M43.8083 64.4251L47.7007 63.8801V65.7298L44.0606 66.2404L43.8083 64.4251Z" fill="#0158DB"/>
<path d="M73.5023 30.2678H71.6682C71.6682 14.9723 59.2251 2.53233 43.9328 2.53233C28.6374 2.53233 16.1974 14.9755 16.1974 30.2678H14.3633C14.3633 13.9634 27.6285 0.698242 43.9328 0.698242C60.2371 0.698242 73.5023 13.9634 73.5023 30.2678Z" fill="#0158DB"/>
<path d="M74.4271 28.3857H67.8723V50.2515H74.4271V28.3857Z" fill="#0158DB"/>
<path d="M74.4271 28.3857H67.8723V50.2515H74.4271V28.3857Z" fill="url(#paint0_linear_3_118)"/>
<path d="M84.9863 39.3172C84.9863 44.3586 81.7852 48.6464 77.2981 50.2625V28.375C81.7852 29.988 84.9863 34.2789 84.9863 39.3172Z" fill="#F7528E"/>
<path d="M84.9863 39.3172C84.9863 44.3586 81.7852 48.6464 77.2981 50.2625V28.375C81.7852 29.988 84.9863 34.2789 84.9863 39.3172Z" fill="url(#paint1_linear_3_118)"/>
<path d="M19.66 28.3857H13.1052V50.2515H19.66V28.3857Z" fill="#0158DB"/>
<path d="M19.66 28.3857H13.1052V50.2515H19.66V28.3857Z" fill="url(#paint2_linear_3_118)"/>
<path d="M2.54614 39.3172C2.54614 44.3586 5.74722 48.6464 10.2343 50.2625V28.375C5.74722 29.988 2.54614 34.2789 2.54614 39.3172Z" fill="#F7528E"/>
<path d="M2.54614 39.3172C2.54614 44.3586 5.74722 48.6464 10.2343 50.2625V28.375C5.74722 29.988 2.54614 34.2789 2.54614 39.3172Z" fill="url(#paint3_linear_3_118)"/>
<path d="M47.7006 62.743H42.0863V67.3921H47.7006V62.743Z" fill="#0158DB"/>
<path d="M34.1491 36.6511C35.5885 36.6511 36.7554 35.4842 36.7554 34.0448C36.7554 32.6054 35.5885 31.4385 34.1491 31.4385C32.7096 31.4385 31.5427 32.6054 31.5427 34.0448C31.5427 35.4842 32.7096 36.6511 34.1491 36.6511Z" fill="#0158DB"/>
<path d="M44.4124 36.6511C45.8518 36.6511 47.0187 35.4842 47.0187 34.0448C47.0187 32.6054 45.8518 31.4385 44.4124 31.4385C42.9729 31.4385 41.806 32.6054 41.806 34.0448C41.806 35.4842 42.9729 36.6511 44.4124 36.6511Z" fill="#FD2B66"/>
<path d="M53.3805 36.6511C54.8199 36.6511 55.9868 35.4842 55.9868 34.0448C55.9868 32.6054 54.8199 31.4385 53.3805 31.4385C51.9411 31.4385 50.7742 32.6054 50.7742 34.0448C50.7742 35.4842 51.9411 36.6511 53.3805 36.6511Z" fill="#0158DB"/>
<defs>
<linearGradient id="paint0_linear_3_118" x1="57.7678" y1="26.7883" x2="77.3813" y2="56.0646" gradientUnits="userSpaceOnUse">
<stop stop-color="#3BC3E1"/>
<stop offset="0.491416" stop-color="#1C32FF"/>
<stop offset="0.984375" stop-color="#FF6DCE"/>
</linearGradient>
<linearGradient id="paint1_linear_3_118" x1="69.6006" y1="19.9364" x2="91.5615" y2="27.5205" gradientUnits="userSpaceOnUse">
<stop offset="0.181437" stop-color="#FAFF01"/>
<stop offset="1" stop-color="#FF4848"/>
</linearGradient>
<linearGradient id="paint2_linear_3_118" x1="10.4366" y1="26.1655" x2="24.5706" y2="51.5296" gradientUnits="userSpaceOnUse">
<stop stop-color="#3BC3E1"/>
<stop offset="0.39054" stop-color="#1C32FF"/>
<stop offset="0.984375" stop-color="#FF6DCE"/>
</linearGradient>
<linearGradient id="paint3_linear_3_118" x1="-2.01881" y1="18.6908" x2="20.8287" y2="32.7625" gradientUnits="userSpaceOnUse">
<stop offset="0.181437" stop-color="#FAFF01"/>
<stop offset="1" stop-color="#FF4848"/>
</linearGradient>
</defs>
</svg>
