<svg width="25" height="26" viewBox="0 0 25 26" fill="none" xmlns="http://www.w3.org/2000/svg">
<path fill-rule="evenodd" clip-rule="evenodd" d="M7.76144 0.505516C9.04872 0.445072 9.45915 0.431641 12.7382 0.431641C16.0173 0.431641 16.4278 0.446192 17.7139 0.505516C19.0001 0.564839 19.8781 0.774152 20.6462 1.07749C21.4507 1.38754 22.1804 1.8722 22.784 2.49902C23.3986 3.11353 23.8727 3.85675 24.1756 4.67833C24.4741 5.46186 24.6782 6.35731 24.7374 7.66691C24.7967 8.98211 24.8099 9.40074 24.8099 12.7441C24.8099 16.0887 24.7956 16.5073 24.7374 17.8202C24.6793 19.1299 24.4741 20.0253 24.1756 20.8088C23.8727 21.6305 23.3978 22.375 22.784 22.9904C22.1804 23.6172 21.4507 24.1007 20.6462 24.4097C19.8781 24.7141 19.0001 24.9223 17.7161 24.9828C16.4278 25.0432 16.0173 25.0566 12.7382 25.0566C9.45915 25.0566 9.04872 25.0421 7.76144 24.9828C6.47746 24.9234 5.59953 24.7141 4.83133 24.4097C4.02574 24.1007 3.29585 23.6164 2.69246 22.9904C2.07832 22.3755 1.60307 21.6314 1.29984 20.8099C1.00244 20.0264 0.798316 19.131 0.739056 17.8214C0.679795 16.5062 0.666626 16.0875 0.666626 12.7441C0.666626 9.39962 0.680892 8.98099 0.739056 7.66915C0.797219 6.35731 1.00244 5.46186 1.29984 4.67833C1.60352 3.85685 2.07914 3.11276 2.69356 2.4979C3.29609 1.87164 4.02525 1.38692 4.83024 1.07749C5.59843 0.774152 6.47637 0.565959 7.76035 0.505516H7.76144ZM17.6163 2.72177C16.3433 2.66244 15.9614 2.65013 12.7382 2.65013C9.51512 2.65013 9.13322 2.66244 7.86021 2.72177C6.68268 2.77661 6.04398 2.97697 5.61818 3.14599C5.05521 3.36985 4.65245 3.63513 4.22995 4.06607C3.82944 4.46348 3.52121 4.94729 3.32787 5.482C3.16216 5.9163 2.96572 6.56774 2.91195 7.76877C2.85378 9.06718 2.84171 9.4567 2.84171 12.7441C2.84171 16.0316 2.85378 16.4211 2.91195 17.7195C2.96572 18.9205 3.16216 19.572 3.32787 20.0063C3.52101 20.5402 3.82939 21.0249 4.22995 21.4222C4.61953 21.8308 5.09471 22.1453 5.61818 22.3423C6.04398 22.5113 6.68268 22.7117 7.86021 22.7665C9.13322 22.8258 9.51402 22.8382 12.7382 22.8382C15.9625 22.8382 16.3433 22.8258 17.6163 22.7665C18.7938 22.7117 19.4325 22.5113 19.8583 22.3423C20.4213 22.1184 20.824 21.8532 21.2465 21.4222C21.6471 21.0249 21.9555 20.5402 22.1486 20.0063C22.3143 19.572 22.5108 18.9205 22.5645 17.7195C22.6227 16.4211 22.6348 16.0316 22.6348 12.7441C22.6348 9.4567 22.6227 9.06718 22.5645 7.76877C22.5108 6.56774 22.3143 5.9163 22.1486 5.482C21.9291 4.90779 21.669 4.497 21.2465 4.06607C20.8569 3.6576 20.3825 3.34322 19.8583 3.14599C19.4325 2.97697 18.7938 2.77661 17.6163 2.72177ZM11.1964 16.5397C12.0575 16.9054 13.0163 16.9547 13.9091 16.6793C14.8019 16.404 15.5733 15.8211 16.0915 15.0301C16.6098 14.2391 16.8427 13.2891 16.7505 12.3424C16.6583 11.3957 16.2467 10.5111 15.586 9.83951C15.1649 9.41022 14.6557 9.08152 14.095 8.87706C13.5344 8.6726 12.9362 8.59747 12.3437 8.65708C11.7512 8.71669 11.179 8.90955 10.6683 9.22179C10.1576 9.53403 9.72116 9.95787 9.39035 10.4628C9.05954 10.9677 8.84261 11.5412 8.75518 12.1419C8.66774 12.7426 8.71198 13.3556 8.8847 13.9368C9.05742 14.518 9.35433 15.0529 9.75405 15.5029C10.1538 15.953 10.6464 16.3071 11.1964 16.5397ZM8.35076 8.26911C8.92693 7.68144 9.61095 7.21527 10.3638 6.89723C11.1166 6.57918 11.9234 6.41549 12.7382 6.41549C13.5531 6.41549 14.3599 6.57918 15.1127 6.89723C15.8655 7.21527 16.5496 7.68144 17.1257 8.26911C17.7019 8.85678 18.1589 9.55444 18.4708 10.3223C18.7826 11.0901 18.9431 11.913 18.9431 12.7441C18.9431 13.5752 18.7826 14.3982 18.4708 15.166C18.1589 15.9338 17.7019 16.6315 17.1257 17.2192C15.9621 18.406 14.3839 19.0728 12.7382 19.0728C11.0926 19.0728 9.51439 18.406 8.35076 17.2192C7.18713 16.0323 6.5334 14.4226 6.5334 12.7441C6.5334 11.0657 7.18713 9.45596 8.35076 8.26911ZM20.3192 7.35798C20.462 7.22061 20.5763 7.05541 20.6554 6.87217C20.7344 6.68893 20.7766 6.49137 20.7795 6.29119C20.7824 6.09102 20.7458 5.89229 20.672 5.70677C20.5982 5.52126 20.4887 5.35273 20.3499 5.21117C20.2111 5.06961 20.0459 4.95789 19.864 4.88263C19.6821 4.80737 19.4873 4.77009 19.291 4.77301C19.0948 4.77593 18.9011 4.81898 18.7214 4.89962C18.5417 4.98026 18.3798 5.09684 18.2451 5.24247C17.9832 5.52569 17.8397 5.90188 17.8453 6.29119C17.8509 6.6805 18.005 7.05227 18.2749 7.32758C18.5448 7.6029 18.9093 7.76007 19.291 7.76575C19.6727 7.77142 20.0415 7.62515 20.3192 7.35798Z" fill="white"/>
</svg>
