<svg width="207" height="56" viewBox="0 0 207 56" fill="none" xmlns="http://www.w3.org/2000/svg">
<path d="M5.35599 55.2465H0L10.8019 28.2868H16.2297L27.0136 55.2465H21.6397L19.3031 49.1895H7.71047L5.35599 55.2465ZM9.38198 44.7142H17.6316L13.4978 34.0921L9.38198 44.7142Z" fill="#003267"/>
<path d="M47.5605 37.2733L40.1915 55.2465H35.5724L28.2034 37.2733H33.3078L37.891 50.4117L42.4921 37.2733H47.5605Z" fill="#003267"/>
<path d="M54.0704 32.7261C53.4233 32.7261 52.8782 32.4985 52.4348 32.0431C51.9915 31.5878 51.7698 31.0366 51.7698 30.3896C51.7698 29.7426 51.9915 29.1914 52.4348 28.7361C52.8782 28.2808 53.4233 28.0531 54.0704 28.0531C54.7414 28.0531 55.2985 28.2808 55.7419 28.7361C56.1972 29.1914 56.4249 29.7426 56.4249 30.3896C56.4249 31.0366 56.1972 31.5878 55.7419 32.0431C55.2985 32.4985 54.7414 32.7261 54.0704 32.7261ZM56.4608 55.2465H51.6979V37.2733H56.4608V55.2465Z" fill="#003267"/>
<path d="M77.7985 55.2465H73.6467L73.3951 53.0717C72.7361 53.8745 71.9153 54.4976 70.9328 54.9409C69.9622 55.3843 68.8838 55.6059 67.6976 55.6059C66.4275 55.6059 65.2952 55.3603 64.3007 54.869C63.3182 54.3778 62.5453 53.7008 61.9822 52.8381C61.419 51.9753 61.1374 50.9988 61.1374 49.9084C61.1374 48.7462 61.443 47.7277 62.054 46.853C62.6651 45.9783 63.5039 45.2893 64.5703 44.7861C65.6487 44.2828 66.8768 44.0312 68.2548 44.0312C69.0696 44.0312 69.8903 44.1271 70.7171 44.3188C71.5558 44.4985 72.3287 44.7561 73.0356 45.0916V44.5704C73.0356 43.8155 72.8259 43.1625 72.4066 42.6113C71.9872 42.0602 71.418 41.6348 70.6991 41.3352C69.9802 41.0357 69.1774 40.8859 68.2907 40.8859C67.464 40.8859 66.6432 41.0237 65.8284 41.2993C65.0136 41.5629 64.2528 41.9643 63.5458 42.5035L62.2158 38.819C63.402 38.1959 64.6062 37.7226 65.8284 37.3991C67.0506 37.0756 68.2368 36.9139 69.3871 36.9139C71.1005 36.9139 72.5863 37.2553 73.8444 37.9383C75.1025 38.6093 76.0731 39.5679 76.7561 40.814C77.451 42.0482 77.7985 43.51 77.7985 45.1995V55.2465ZM68.7221 51.8495C69.453 51.8495 70.142 51.6938 70.789 51.3822C71.436 51.0707 71.9632 50.6393 72.3706 50.0882C72.778 49.537 72.9937 48.9139 73.0177 48.219V48.0572C72.4665 47.6738 71.8494 47.3802 71.1664 47.1765C70.4954 46.9608 69.8184 46.853 69.1355 46.853C68.081 46.853 67.2183 47.0867 66.5473 47.554C65.8883 48.0213 65.5588 48.6264 65.5588 49.3692C65.5588 49.8365 65.6966 50.2619 65.9722 50.6453C66.2478 51.0288 66.6192 51.3283 67.0865 51.544C67.5658 51.7477 68.111 51.8495 68.7221 51.8495Z" fill="#003267"/>
<path d="M89.1791 55.2465H84.4162V41.533H81.2709V37.2733H84.4162V34.2898C84.4162 33.0197 84.7098 31.8934 85.2969 30.9108C85.884 29.9283 86.6928 29.1555 87.7233 28.5923C88.7537 28.0291 89.928 27.7476 91.246 27.7476C92.0848 27.7476 92.9295 27.8674 93.7802 28.107C94.6429 28.3347 95.4937 28.7001 96.3324 29.2034L94.5171 32.9238C94.1337 32.6123 93.7263 32.3846 93.2949 32.2408C92.8756 32.0851 92.4562 32.0072 92.0368 32.0072C91.222 32.0072 90.5391 32.2948 89.9879 32.8699C89.4487 33.445 89.1791 34.2299 89.1791 35.2244V37.2733H94.589V41.533H89.1791V55.2465Z" fill="#003267"/>
<path d="M115.37 55.2465H111.218L110.966 53.0717C110.307 53.8745 109.486 54.4976 108.504 54.9409C107.533 55.3843 106.455 55.6059 105.269 55.6059C103.999 55.6059 102.866 55.3603 101.872 54.869C100.889 54.3778 100.116 53.7008 99.5532 52.8381C98.99 51.9753 98.7085 50.9988 98.7085 49.9084C98.7085 48.7462 99.014 47.7277 99.6251 46.853C100.236 45.9783 101.075 45.2893 102.141 44.7861C103.22 44.2828 104.448 44.0312 105.826 44.0312C106.641 44.0312 107.461 44.1271 108.288 44.3188C109.127 44.4985 109.9 44.7561 110.607 45.0916V44.5704C110.607 43.8155 110.397 43.1625 109.978 42.6113C109.558 42.0602 108.989 41.6348 108.27 41.3352C107.551 41.0357 106.748 40.8859 105.862 40.8859C105.035 40.8859 104.214 41.0237 103.399 41.2993C102.585 41.5629 101.824 41.9643 101.117 42.5035L99.7868 38.819C100.973 38.1959 102.177 37.7226 103.399 37.3991C104.622 37.0756 105.808 36.9139 106.958 36.9139C108.672 36.9139 110.157 37.2553 111.415 37.9383C112.674 38.6093 113.644 39.5679 114.327 40.814C115.022 42.0482 115.37 43.51 115.37 45.1995V55.2465ZM106.293 51.8495C107.024 51.8495 107.713 51.6938 108.36 51.3822C109.007 51.0707 109.534 50.6393 109.942 50.0882C110.349 49.537 110.565 48.9139 110.589 48.219V48.0572C110.038 47.6738 109.42 47.3802 108.737 47.1765C108.066 46.9608 107.389 46.853 106.707 46.853C105.652 46.853 104.789 47.0867 104.118 47.554C103.459 48.0213 103.13 48.6264 103.13 49.3692C103.13 49.8365 103.268 50.2619 103.543 50.6453C103.819 51.0288 104.19 51.3283 104.658 51.544C105.137 51.7477 105.682 51.8495 106.293 51.8495Z" fill="#003267"/>
<path d="M125.312 55.2465H120.549V37.2733H124.701L124.863 40.4725C125.474 39.3462 126.301 38.4715 127.343 37.8485C128.398 37.2254 129.602 36.9139 130.956 36.9139C131.327 36.9139 131.705 36.9378 132.088 36.9858C132.472 37.0337 132.855 37.1116 133.238 37.2194L132.663 41.515C131.896 41.2873 131.16 41.1735 130.453 41.1735C129.434 41.1735 128.535 41.4131 127.757 41.8924C126.978 42.3597 126.373 43.0127 125.941 43.8515C125.522 44.6783 125.312 45.6488 125.312 46.7631V55.2465Z" fill="#003267"/>
<path d="M153.048 53.1975C150.82 54.8031 148.375 55.6059 145.715 55.6059C143.774 55.6059 142.031 55.1865 140.485 54.3478C138.94 53.5091 137.717 52.3648 136.819 50.9149C135.92 49.4531 135.471 47.8116 135.471 45.9903C135.471 44.2529 135.878 42.7012 136.693 41.3352C137.508 39.9693 138.616 38.8909 140.018 38.1001C141.432 37.3093 143.031 36.9139 144.817 36.9139C146.662 36.9139 148.286 37.3512 149.687 38.2259C151.101 39.0886 152.198 40.2928 152.977 41.8385C153.767 43.3842 154.163 45.1755 154.163 47.2125V47.7876H140.593C140.809 48.5545 141.174 49.2314 141.689 49.8186C142.217 50.3937 142.87 50.849 143.648 51.1845C144.427 51.508 145.308 51.6698 146.291 51.6698C148.16 51.6698 149.903 51.0587 151.521 49.8365L153.048 53.1975ZM140.395 45.1815H149.741C149.646 44.3428 149.388 43.6059 148.969 42.9708C148.549 42.3358 148.004 41.8385 147.333 41.479C146.662 41.1196 145.907 40.9398 145.068 40.9398C144.218 40.9398 143.457 41.1256 142.786 41.497C142.127 41.8565 141.588 42.3537 141.168 42.9888C140.761 43.6238 140.503 44.3547 140.395 45.1815Z" fill="#003267"/>
<path d="M157.258 53.7008L158.318 49.6029C158.702 49.9983 159.187 50.3638 159.774 50.6993C160.373 51.0228 161.014 51.2804 161.697 51.4721C162.38 51.6638 163.033 51.7597 163.656 51.7597C164.459 51.7597 165.094 51.5979 165.561 51.2744C166.041 50.9509 166.28 50.5255 166.28 49.9983C166.28 49.5789 166.13 49.2255 165.831 48.9379C165.531 48.6383 165.136 48.3807 164.645 48.165C164.153 47.9374 163.614 47.7157 163.027 47.5C162.248 47.2125 161.445 46.871 160.619 46.4756C159.804 46.0682 159.121 45.529 158.57 44.858C158.019 44.187 157.743 43.2943 157.743 42.18C157.743 41.1016 158.019 40.173 158.57 39.3942C159.121 38.6033 159.9 37.9922 160.906 37.5609C161.913 37.1295 163.081 36.9139 164.411 36.9139C166.556 36.9139 168.689 37.4471 170.809 38.5135L169.444 42.3597C169.06 42.0721 168.587 41.8026 168.024 41.5509C167.46 41.2993 166.885 41.1016 166.298 40.9578C165.711 40.802 165.178 40.7242 164.699 40.7242C164.064 40.7242 163.56 40.862 163.189 41.1375C162.817 41.4131 162.632 41.7786 162.632 42.2339C162.632 42.5574 162.746 42.851 162.973 43.1146C163.201 43.3662 163.548 43.6118 164.016 43.8515C164.483 44.0911 165.07 44.3487 165.777 44.6243C166.592 44.9359 167.413 45.3013 168.239 45.7207C169.066 46.1281 169.761 46.6733 170.324 47.3563C170.887 48.0392 171.169 48.9439 171.169 50.0702C171.169 51.1725 170.869 52.1431 170.27 52.9818C169.671 53.8086 168.832 54.4556 167.754 54.9229C166.676 55.3783 165.418 55.6059 163.98 55.6059C161.583 55.6059 159.343 54.9709 157.258 53.7008Z" fill="#003267"/>
<path d="M192.182 13.2981L158.939 21.8311C172.447 24.0595 183.4 33.9895 186.938 47.2154L192.182 13.2981Z" fill="url(#paint0_linear_3_8)"/>
<defs>
<linearGradient id="paint0_linear_3_8" x1="172.581" y1="8.60861" x2="208.268" y2="40.0781" gradientUnits="userSpaceOnUse">
<stop stop-color="#3192EB"/>
<stop offset="0.377686" stop-color="#2A36FC"/>
<stop offset="1" stop-color="#D261D8"/>
</linearGradient>
</defs>
</svg>
