<svg width="207" height="56" viewBox="0 0 207 56" fill="none" xmlns="http://www.w3.org/2000/svg">
<path d="M5.85599 55.6346H0.5L11.3019 28.6749H16.7297L27.5136 55.6346H22.1397L19.8031 49.5777H8.21047L5.85599 55.6346ZM9.88198 45.1024H18.1316L13.9978 34.4803L9.88198 45.1024Z" fill="white"/>
<path d="M48.0605 37.6615L40.6915 55.6346H36.0724L28.7034 37.6615H33.8078L38.391 50.7999L42.9921 37.6615H48.0605Z" fill="white"/>
<path d="M54.5704 33.1143C53.9233 33.1143 53.3782 32.8866 52.9348 32.4313C52.4915 31.976 52.2698 31.4248 52.2698 30.7778C52.2698 30.1308 52.4915 29.5796 52.9348 29.1243C53.3782 28.6689 53.9233 28.4413 54.5704 28.4413C55.2414 28.4413 55.7985 28.6689 56.2419 29.1243C56.6972 29.5796 56.9249 30.1308 56.9249 30.7778C56.9249 31.4248 56.6972 31.976 56.2419 32.4313C55.7985 32.8866 55.2414 33.1143 54.5704 33.1143ZM56.9608 55.6346H52.1979V37.6615H56.9608V55.6346Z" fill="white"/>
<path d="M78.2985 55.6346H74.1467L73.8951 53.4599C73.2361 54.2627 72.4153 54.8858 71.4328 55.3291C70.4622 55.7724 69.3838 55.9941 68.1976 55.9941C66.9275 55.9941 65.7952 55.7485 64.8007 55.2572C63.8182 54.7659 63.0453 54.089 62.4822 53.2262C61.919 52.3635 61.6374 51.387 61.6374 50.2966C61.6374 49.1344 61.943 48.1159 62.554 47.2412C63.1651 46.3665 64.0039 45.6775 65.0703 45.1743C66.1487 44.671 67.3768 44.4194 68.7548 44.4194C69.5696 44.4194 70.3903 44.5153 71.2171 44.707C72.0558 44.8867 72.8287 45.1443 73.5356 45.4798V44.9586C73.5356 44.2037 73.3259 43.5507 72.9066 42.9995C72.4872 42.4483 71.918 42.023 71.1991 41.7234C70.4802 41.4239 69.6774 41.2741 68.7907 41.2741C67.964 41.2741 67.1432 41.4119 66.3284 41.6875C65.5136 41.9511 64.7528 42.3525 64.0458 42.8917L62.7158 39.2072C63.902 38.5841 65.1062 38.1108 66.3284 37.7873C67.5506 37.4638 68.7368 37.302 69.8871 37.302C71.6005 37.302 73.0863 37.6435 74.3444 38.3265C75.6025 38.9975 76.5731 39.9561 77.2561 41.2022C77.951 42.4364 78.2985 43.8982 78.2985 45.5877V55.6346ZM69.2221 52.2377C69.953 52.2377 70.642 52.082 71.289 51.7704C71.936 51.4589 72.4632 51.0275 72.8706 50.4764C73.278 49.9252 73.4937 49.3021 73.5177 48.6071V48.4454C72.9665 48.062 72.3494 47.7684 71.6664 47.5647C70.9954 47.349 70.3184 47.2412 69.6355 47.2412C68.581 47.2412 67.7183 47.4748 67.0473 47.9421C66.3883 48.4094 66.0588 49.0145 66.0588 49.7574C66.0588 50.2247 66.1966 50.6501 66.4722 51.0335C66.7478 51.4169 67.1192 51.7165 67.5865 51.9322C68.0658 52.1359 68.611 52.2377 69.2221 52.2377Z" fill="white"/>
<path d="M89.6791 55.6346H84.9162V41.9211H81.7709V37.6615H84.9162V34.678C84.9162 33.4079 85.2098 32.2815 85.7969 31.299C86.384 30.3165 87.1928 29.5436 88.2233 28.9805C89.2537 28.4173 90.428 28.1357 91.746 28.1357C92.5848 28.1357 93.4295 28.2556 94.2802 28.4952C95.1429 28.7229 95.9937 29.0883 96.8324 29.5916L95.0171 33.312C94.6337 33.0005 94.2263 32.7728 93.7949 32.629C93.3756 32.4733 92.9562 32.3954 92.5368 32.3954C91.722 32.3954 91.0391 32.6829 90.4879 33.2581C89.9487 33.8332 89.6791 34.6181 89.6791 35.6126V37.6615H95.089V41.9211H89.6791V55.6346Z" fill="white"/>
<path d="M115.87 55.6346H111.718L111.466 53.4599C110.807 54.2627 109.986 54.8858 109.004 55.3291C108.033 55.7724 106.955 55.9941 105.769 55.9941C104.499 55.9941 103.366 55.7485 102.372 55.2572C101.389 54.7659 100.616 54.089 100.053 53.2262C99.49 52.3635 99.2085 51.387 99.2085 50.2966C99.2085 49.1344 99.514 48.1159 100.125 47.2412C100.736 46.3665 101.575 45.6775 102.641 45.1743C103.72 44.671 104.948 44.4194 106.326 44.4194C107.141 44.4194 107.961 44.5153 108.788 44.707C109.627 44.8867 110.4 45.1443 111.107 45.4798V44.9586C111.107 44.2037 110.897 43.5507 110.478 42.9995C110.058 42.4483 109.489 42.023 108.77 41.7234C108.051 41.4239 107.248 41.2741 106.362 41.2741C105.535 41.2741 104.714 41.4119 103.899 41.6875C103.085 41.9511 102.324 42.3525 101.617 42.8917L100.287 39.2072C101.473 38.5841 102.677 38.1108 103.899 37.7873C105.122 37.4638 106.308 37.302 107.458 37.302C109.172 37.302 110.657 37.6435 111.915 38.3265C113.174 38.9975 114.144 39.9561 114.827 41.2022C115.522 42.4364 115.87 43.8982 115.87 45.5877V55.6346ZM106.793 52.2377C107.524 52.2377 108.213 52.082 108.86 51.7704C109.507 51.4589 110.034 51.0275 110.442 50.4764C110.849 49.9252 111.065 49.3021 111.089 48.6071V48.4454C110.538 48.062 109.92 47.7684 109.237 47.5647C108.566 47.349 107.889 47.2412 107.207 47.2412C106.152 47.2412 105.289 47.4748 104.618 47.9421C103.959 48.4094 103.63 49.0145 103.63 49.7574C103.63 50.2247 103.768 50.6501 104.043 51.0335C104.319 51.4169 104.69 51.7165 105.158 51.9322C105.637 52.1359 106.182 52.2377 106.793 52.2377Z" fill="white"/>
<path d="M125.812 55.6346H121.049V37.6615H125.201L125.363 40.8607C125.974 39.7344 126.801 38.8597 127.843 38.2366C128.898 37.6136 130.102 37.302 131.456 37.302C131.827 37.302 132.205 37.326 132.588 37.3739C132.972 37.4219 133.355 37.4997 133.738 37.6076L133.163 41.9032C132.396 41.6755 131.66 41.5617 130.953 41.5617C129.934 41.5617 129.035 41.8013 128.257 42.2806C127.478 42.7479 126.873 43.4009 126.441 44.2397C126.022 45.0664 125.812 46.037 125.812 47.1513V55.6346Z" fill="white"/>
<path d="M153.548 53.5857C151.32 55.1913 148.875 55.9941 146.215 55.9941C144.274 55.9941 142.531 55.5747 140.985 54.736C139.44 53.8972 138.217 52.7529 137.319 51.3031C136.42 49.8413 135.971 48.1998 135.971 46.3785C135.971 44.6411 136.378 43.0894 137.193 41.7234C138.008 40.3575 139.116 39.2791 140.518 38.4883C141.932 37.6975 143.531 37.302 145.317 37.302C147.162 37.302 148.786 37.7394 150.187 38.6141C151.601 39.4768 152.698 40.681 153.477 42.2267C154.267 43.7724 154.663 45.5637 154.663 47.6006V48.1758H141.093C141.309 48.9426 141.674 49.6196 142.189 50.2068C142.717 50.7819 143.37 51.2372 144.148 51.5727C144.927 51.8962 145.808 52.058 146.791 52.058C148.66 52.058 150.403 51.4469 152.021 50.2247L153.548 53.5857ZM140.895 45.5697H150.241C150.146 44.7309 149.888 43.994 149.469 43.359C149.049 42.7239 148.504 42.2267 147.833 41.8672C147.162 41.5078 146.407 41.328 145.568 41.328C144.718 41.328 143.957 41.5137 143.286 41.8852C142.627 42.2447 142.088 42.7419 141.668 43.377C141.261 44.012 141.003 44.7429 140.895 45.5697Z" fill="white"/>
<path d="M157.758 54.089L158.818 49.9911C159.202 50.3865 159.687 50.7519 160.274 51.0874C160.873 51.411 161.514 51.6686 162.197 51.8603C162.88 52.052 163.533 52.1479 164.156 52.1479C164.959 52.1479 165.594 51.9861 166.061 51.6626C166.541 51.3391 166.78 50.9137 166.78 50.3865C166.78 49.9671 166.63 49.6136 166.331 49.3261C166.031 49.0265 165.636 48.7689 165.145 48.5532C164.653 48.3256 164.114 48.1039 163.527 47.8882C162.748 47.6006 161.945 47.2592 161.119 46.8638C160.304 46.4564 159.621 45.9172 159.07 45.2462C158.519 44.5752 158.243 43.6825 158.243 42.5682C158.243 41.4898 158.519 40.5612 159.07 39.7823C159.621 38.9915 160.4 38.3804 161.406 37.9491C162.413 37.5177 163.581 37.302 164.911 37.302C167.056 37.302 169.189 37.8352 171.309 38.9017L169.944 42.7479C169.56 42.4603 169.087 42.1907 168.524 41.9391C167.96 41.6875 167.385 41.4898 166.798 41.346C166.211 41.1902 165.678 41.1123 165.199 41.1123C164.564 41.1123 164.06 41.2501 163.689 41.5257C163.317 41.8013 163.132 42.1668 163.132 42.6221C163.132 42.9456 163.246 43.2392 163.473 43.5028C163.701 43.7544 164.048 44 164.516 44.2397C164.983 44.4793 165.57 44.7369 166.277 45.0125C167.092 45.3241 167.913 45.6895 168.739 46.1089C169.566 46.5163 170.261 47.0615 170.824 47.7444C171.387 48.4274 171.669 49.3321 171.669 50.4584C171.669 51.5607 171.369 52.5313 170.77 53.37C170.171 54.1968 169.332 54.8438 168.254 55.3111C167.176 55.7664 165.918 55.9941 164.48 55.9941C162.083 55.9941 159.843 55.3591 157.758 54.089Z" fill="white"/>
<path d="M192.682 13.6863L159.439 22.2192C172.947 24.4476 183.9 34.3777 187.438 47.6036L192.682 13.6863Z" fill="white"/>
</svg>
