<svg width="89" height="88" viewBox="0 0 89 88" fill="none" xmlns="http://www.w3.org/2000/svg">
<path d="M0.637207 0.966797L28.5992 62.6722L46.6969 50.7847L58.881 53.7696L61.4291 35.3193L74.2943 22.4181L0.637207 0.966797ZM12.8853 10.6387L55.876 33.5884L55.3191 46.5818L12.8853 10.6387Z" fill="url(#paint0_linear_3_483)"/>
<path d="M63.4283 58.3164C65.5598 60.4279 67.5391 62.6595 69.4703 64.9273C71.3934 67.199 73.2605 69.5148 75.0715 71.8747C76.8825 74.2306 78.6414 76.6305 80.3402 79.0785C82.0309 81.5306 83.6776 84.0147 85.1641 86.6229C83.0285 84.5115 81.0533 82.2838 79.1221 80.0161C77.199 77.7443 75.3319 75.4285 73.5209 73.0687C71.71 70.7088 69.9511 68.3088 68.2563 65.8648C66.5615 63.4048 64.9188 60.9207 63.4283 58.3164Z" fill="#F56AA1"/>
<path d="M45.0062 58.7158C47.1377 60.8273 49.117 63.059 51.0482 65.3267C52.9713 67.5984 54.8384 69.9142 56.6494 72.2741C58.4603 74.63 60.2192 77.0299 61.918 79.478C63.6088 81.93 65.2555 84.4141 66.742 87.0224C64.6064 84.9109 62.6312 82.6832 60.7 80.4155C58.7769 78.1438 56.9098 75.828 55.0988 73.4681C53.2878 71.1082 51.529 68.7082 49.8302 66.2642C48.1434 63.8042 46.4967 61.3201 45.0062 58.7158Z" fill="#F56AA1"/>
<path d="M66.5657 35.3389C68.6972 37.4503 70.6764 39.682 72.6076 41.9497C74.5308 44.2215 76.3978 46.5373 78.2088 48.8972C80.0198 51.253 81.7787 53.653 83.4775 56.101C85.1683 58.553 86.815 61.0371 88.3014 63.6454C86.1659 61.5339 84.1906 59.3063 82.2595 57.0385C80.3363 54.7668 78.4692 52.451 76.6623 50.0911C74.8513 47.7312 73.0924 45.3313 71.3936 42.8873C69.7029 40.4272 68.0561 37.9431 66.5657 35.3389Z" fill="#F56AA1"/>
<defs>
<linearGradient id="paint0_linear_3_483" x1="-9.67574" y1="4.9894" x2="58.619" y2="69.5105" gradientUnits="userSpaceOnUse">
<stop stop-color="#3BC3E1"/>
<stop offset="0.348958" stop-color="#1C32FF"/>
<stop offset="0.984375" stop-color="#FF6DCE"/>
</linearGradient>
</defs>
</svg>
