<svg width="170" height="42" viewBox="0 0 170 42" fill="none" xmlns="http://www.w3.org/2000/svg">
<path d="M45.0397 14.9211H62.1834V18.0664H55.4333V35.7969H51.7334V18.0664H45.0115L45.0397 14.9211ZM61.4491 20.6828H64.6123V23.6055H64.6688C64.7818 23.1879 64.9795 22.7983 65.2619 22.4086C65.5444 22.0189 65.8833 21.657 66.3069 21.3509C66.7023 21.0169 67.1542 20.7664 67.6626 20.5715C68.1427 20.3767 68.6511 20.2653 69.1595 20.2653C69.5549 20.2653 69.8373 20.2932 69.9786 20.2932C70.1198 20.321 70.2892 20.3488 70.4305 20.3488V23.5498C70.2045 23.4941 69.9503 23.4663 69.6961 23.4384C69.4419 23.4106 69.216 23.3828 68.9618 23.3828C68.3969 23.3828 67.8603 23.4941 67.3519 23.7168C66.8436 23.9395 66.4199 24.2735 66.0245 24.691C65.6573 25.1363 65.3467 25.6652 65.1207 26.3054C64.8948 26.9456 64.7818 27.6971 64.7818 28.5321V35.7134H61.3926L61.4491 20.6828ZM85.9643 35.7969H82.6316V33.6815H82.5751C82.1514 34.4609 81.5301 35.0454 80.711 35.5186C79.892 35.9917 79.0447 36.2144 78.1974 36.2144C76.1921 36.2144 74.7234 35.7412 73.8197 34.7392C72.9159 33.765 72.464 32.2619 72.464 30.2857V20.6828H75.8532V29.9517C75.8532 31.2877 76.1074 32.2341 76.644 32.763C77.1524 33.3196 77.8867 33.598 78.8187 33.598C79.5248 33.598 80.1179 33.4867 80.598 33.264C81.0782 33.0413 81.4736 32.763 81.756 32.4011C82.0667 32.0393 82.2644 31.5939 82.4056 31.0929C82.5468 30.5919 82.6033 30.0352 82.6033 29.4507V20.6828H85.9925V35.7969H85.9643ZM91.7259 30.9537C91.8389 31.9279 92.206 32.596 92.8556 33.0135C93.5052 33.4032 94.2961 33.598 95.1998 33.598C95.5105 33.598 95.8777 33.5702 96.2731 33.5145C96.6685 33.4588 97.0639 33.3753 97.4028 33.2361C97.77 33.097 98.0524 32.9021 98.2784 32.6238C98.5043 32.3454 98.6173 32.0114 98.589 31.5939C98.5608 31.1764 98.4196 30.8145 98.1089 30.5362C97.7982 30.2579 97.4311 30.063 96.9792 29.8682C96.5273 29.7012 95.9907 29.562 95.3975 29.4507C94.8044 29.3393 94.2113 29.2002 93.59 29.061C92.9686 28.9218 92.3473 28.7548 91.7542 28.56C91.161 28.3651 90.6527 28.1146 90.1725 27.7528C89.7206 27.4188 89.3252 27.0013 89.071 26.4724C88.7886 25.9435 88.6474 25.3312 88.6474 24.5518C88.6474 23.7168 88.8451 23.0488 89.2687 22.4921C89.6641 21.9354 90.2008 21.49 90.8221 21.156C91.4435 20.822 92.1496 20.5715 92.9121 20.4323C93.6747 20.2932 94.409 20.2375 95.0869 20.2375C95.8777 20.2375 96.6402 20.321 97.3463 20.488C98.0524 20.655 98.7302 20.9055 99.2951 21.2952C99.8882 21.6571 100.368 22.1581 100.736 22.7426C101.131 23.3271 101.357 24.0508 101.47 24.8858H97.9394C97.77 24.0786 97.4028 23.5498 96.838 23.2714C96.2448 22.9931 95.5952 22.8539 94.8327 22.8539C94.6067 22.8539 94.2961 22.8818 93.9854 22.9096C93.6465 22.9653 93.364 23.0209 93.0534 23.1323C92.7709 23.2436 92.5167 23.4106 92.319 23.6055C92.1213 23.8003 92.0083 24.0786 92.0083 24.4126C92.0083 24.8302 92.1496 25.1363 92.432 25.3869C92.7144 25.6374 93.0816 25.8322 93.5617 26.027C94.0136 26.1941 94.5502 26.3332 95.1434 26.4446C95.7365 26.5559 96.3578 26.6951 96.9792 26.8342C97.6005 26.9734 98.1936 27.1404 98.7867 27.3353C99.3798 27.5301 99.9165 27.7806 100.368 28.1425C100.82 28.4765 101.216 28.894 101.498 29.395C101.781 29.896 101.922 30.5362 101.922 31.2599C101.922 32.1506 101.724 32.9021 101.3 33.5423C100.877 34.1547 100.34 34.6835 99.6905 35.0732C99.0409 35.4629 98.2784 35.7412 97.4875 35.9361C96.6685 36.1031 95.8777 36.2144 95.0869 36.2144C94.1266 36.2144 93.2228 36.1031 92.4037 35.8804C91.5847 35.6577 90.8504 35.3237 90.2573 34.9062C89.6641 34.4609 89.184 33.932 88.8451 33.264C88.5062 32.6238 88.3085 31.8444 88.2802 30.9259H91.6977V30.9537H91.7259ZM102.882 20.6828H105.452V16.118H108.841V20.655H111.892V23.1323H108.841V31.2042C108.841 31.5661 108.87 31.8444 108.898 32.1228C108.926 32.3733 109.011 32.5959 109.096 32.763C109.209 32.93 109.378 33.0691 109.576 33.1526C109.802 33.2361 110.084 33.2918 110.479 33.2918C110.705 33.2918 110.96 33.2918 111.186 33.264C111.411 33.2361 111.666 33.2083 111.892 33.1526V35.7412C111.524 35.7969 111.157 35.8247 110.79 35.8526C110.423 35.9082 110.084 35.9082 109.689 35.9082C108.785 35.9082 108.079 35.8247 107.542 35.6577C107.006 35.4907 106.582 35.2402 106.271 34.934C105.961 34.6 105.763 34.2103 105.65 33.7372C105.537 33.264 105.48 32.6795 105.452 32.0671V23.1601H102.882V20.6272V20.6828ZM114.264 20.6828H117.456V22.7426H117.512C117.992 21.8519 118.642 21.2395 119.489 20.8499C120.336 20.4602 121.24 20.2653 122.257 20.2653C123.471 20.2653 124.516 20.4602 125.42 20.9055C126.324 21.323 127.058 21.8797 127.651 22.6313C128.245 23.3549 128.696 24.2178 128.979 25.192C129.261 26.1662 129.431 27.2239 129.431 28.3095C129.431 29.3393 129.29 30.3135 129.035 31.2599C128.753 32.2063 128.357 33.0691 127.821 33.7928C127.284 34.5165 126.606 35.101 125.759 35.5464C124.912 35.9917 123.952 36.2144 122.822 36.2144C122.342 36.2144 121.833 36.1588 121.353 36.0752C120.873 35.9917 120.393 35.8526 119.941 35.6577C119.489 35.4629 119.065 35.2124 118.698 34.9062C118.303 34.6 117.992 34.2382 117.738 33.8485H117.682V41.3916H114.292V20.6828H114.264ZM126.098 28.2538C126.098 27.5858 126.013 26.9177 125.816 26.2776C125.646 25.6374 125.364 25.0807 124.997 24.5797C124.629 24.0786 124.177 23.689 123.669 23.3828C123.132 23.0766 122.511 22.9374 121.833 22.9374C120.421 22.9374 119.348 23.4106 118.614 24.3848C117.907 25.359 117.54 26.6672 117.54 28.2816C117.54 29.061 117.625 29.7568 117.823 30.397C118.02 31.0372 118.275 31.5939 118.67 32.0671C119.037 32.5403 119.489 32.9021 120.026 33.1805C120.562 33.4588 121.155 33.598 121.862 33.598C122.652 33.598 123.274 33.431 123.81 33.1248C124.347 32.8186 124.771 32.4011 125.138 31.9279C125.477 31.4269 125.731 30.8702 125.872 30.23C126.013 29.562 126.098 28.9218 126.098 28.2538ZM132.057 14.9211H135.447V18.0664H132.057V14.9211ZM132.057 20.6828H135.447V35.7969H132.057V20.6828ZM138.469 14.9211H141.858V35.7969H138.469V14.9211ZM152.195 36.2144C150.98 36.2144 149.879 36.0196 148.919 35.6021C147.958 35.1845 147.168 34.6557 146.49 33.9598C145.84 33.264 145.332 32.4011 144.993 31.4269C144.654 30.4527 144.456 29.3672 144.456 28.226C144.456 27.0848 144.626 26.027 144.993 25.0528C145.332 24.0786 145.84 23.2436 146.49 22.5199C147.139 21.8241 147.958 21.2674 148.919 20.8777C149.879 20.488 150.98 20.2653 152.195 20.2653C153.409 20.2653 154.511 20.4602 155.471 20.8777C156.431 21.2674 157.222 21.8241 157.9 22.5199C158.55 23.2158 159.058 24.0786 159.397 25.0528C159.736 26.027 159.934 27.0848 159.934 28.226C159.934 29.395 159.764 30.4527 159.397 31.4269C159.03 32.4011 158.55 33.2361 157.9 33.9598C157.25 34.6557 156.431 35.2124 155.471 35.6021C154.511 35.9917 153.438 36.2144 152.195 36.2144ZM152.195 33.5702C152.929 33.5702 153.607 33.4031 154.144 33.097C154.708 32.7908 155.132 32.3733 155.499 31.8723C155.866 31.3712 156.121 30.7867 156.29 30.1744C156.46 29.5342 156.544 28.894 156.544 28.226C156.544 27.5858 156.46 26.9456 156.29 26.3054C156.121 25.6652 155.866 25.1085 155.499 24.6075C155.132 24.1065 154.68 23.7168 154.144 23.4106C153.579 23.1044 152.929 22.9374 152.195 22.9374C151.461 22.9374 150.783 23.1044 150.246 23.4106C149.681 23.7168 149.258 24.1343 148.89 24.6075C148.523 25.1085 148.269 25.6652 148.1 26.3054C147.93 26.9456 147.845 27.5858 147.845 28.226C147.845 28.894 147.93 29.5342 148.1 30.1744C148.269 30.8146 148.523 31.3712 148.89 31.8723C149.258 32.3733 149.709 32.7908 150.246 33.097C150.811 33.431 151.461 33.5702 152.195 33.5702ZM160.95 20.6828H163.52V16.118H166.91V20.655H169.96V23.1323H166.91V31.2042C166.91 31.5661 166.938 31.8444 166.966 32.1228C166.994 32.3733 167.079 32.5959 167.164 32.763C167.277 32.93 167.446 33.0691 167.644 33.1526C167.87 33.2361 168.152 33.2918 168.548 33.2918C168.774 33.2918 169.028 33.2918 169.254 33.264C169.48 33.2361 169.734 33.2083 169.96 33.1526V35.7412C169.593 35.7969 169.226 35.8247 168.858 35.8526C168.491 35.9082 168.152 35.9082 167.757 35.9082C166.853 35.9082 166.147 35.8247 165.61 35.6577C165.074 35.4907 164.65 35.2402 164.339 34.934C164.029 34.6 163.831 34.2103 163.718 33.7372C163.605 33.264 163.549 32.6795 163.52 32.0671V23.1601H160.95V20.6272V20.6828Z" fill="#063664"/>
<path d="M41.0856 14.9211H25.5801L20.8069 0.391602L16.0056 14.9211L0.5 14.8933L13.04 23.8838L8.23867 38.4133L20.7787 29.4228L33.3187 38.4133L28.5456 23.8838L41.0856 14.9211Z" fill="#00B67A"/>
<path d="M29.6189 27.1685L28.5457 23.884L20.807 29.4231L29.6189 27.1685Z" fill="#005128"/>
</svg>
