<svg width="171" height="41" viewBox="0 0 171 41" fill="none" xmlns="http://www.w3.org/2000/svg">
<path d="M45.2322 14.5295H62.3759V17.6748H55.6258V35.4053H51.9259V17.6748H45.204L45.2322 14.5295ZM61.6416 20.2912H64.8048V23.2139H64.8613C64.9743 22.7963 65.172 22.4067 65.4544 22.017C65.7369 21.6273 66.0758 21.2654 66.4994 20.9593C66.8948 20.6253 67.3467 20.3748 67.8551 20.1799C68.3352 19.9851 68.8436 19.8737 69.352 19.8737C69.7474 19.8737 70.0299 19.9016 70.1711 19.9016C70.3123 19.9294 70.4817 19.9572 70.623 19.9572V23.1582C70.397 23.1025 70.1428 23.0747 69.8886 23.0468C69.6344 23.019 69.4085 22.9912 69.1543 22.9912C68.5894 22.9912 68.0528 23.1025 67.5444 23.3252C67.0361 23.5479 66.6124 23.8819 66.217 24.2994C65.8498 24.7447 65.5392 25.2736 65.3132 25.9138C65.0873 26.554 64.9743 27.3055 64.9743 28.1405V35.3218H61.5851L61.6416 20.2912ZM86.1568 35.4053H82.8241V33.2899H82.7676C82.3439 34.0693 81.7226 34.6538 80.9035 35.127C80.0845 35.6001 79.2372 35.8228 78.3899 35.8228C76.3846 35.8228 74.9159 35.3496 74.0122 34.3476C73.1084 33.3734 72.6565 31.8703 72.6565 29.8941V20.2912H76.0457V29.5601C76.0457 30.8961 76.2999 31.8425 76.8365 32.3714C77.3449 32.928 78.0792 33.2064 79.0112 33.2064C79.7173 33.2064 80.3104 33.0951 80.7906 32.8724C81.2707 32.6497 81.6661 32.3714 81.9485 32.0095C82.2592 31.6477 82.4569 31.2023 82.5981 30.7013C82.7393 30.2003 82.7958 29.6436 82.7958 29.0591V20.2912H86.185V35.4053H86.1568ZM91.9184 30.5621C92.0314 31.5363 92.3986 32.2044 93.0482 32.6219C93.6978 33.0116 94.4886 33.2064 95.3923 33.2064C95.703 33.2064 96.0702 33.1786 96.4656 33.1229C96.861 33.0672 97.2564 32.9837 97.5953 32.8445C97.9625 32.7054 98.2449 32.5105 98.4709 32.2322C98.6968 31.9538 98.8098 31.6198 98.7815 31.2023C98.7533 30.7848 98.6121 30.423 98.3014 30.1446C97.9907 29.8663 97.6236 29.6714 97.1717 29.4766C96.7198 29.3096 96.1832 29.1704 95.5901 29.0591C94.9969 28.9477 94.4038 28.8086 93.7825 28.6694C93.1611 28.5302 92.5398 28.3632 91.9467 28.1684C91.3536 27.9735 90.8452 27.723 90.365 27.3612C89.9131 27.0272 89.5177 26.6097 89.2636 26.0808C88.9811 25.5519 88.8399 24.9396 88.8399 24.1602C88.8399 23.3252 89.0376 22.6572 89.4613 22.1005C89.8567 21.5438 90.3933 21.0984 91.0146 20.7644C91.636 20.4304 92.3421 20.1799 93.1046 20.0407C93.8672 19.9016 94.6015 19.8459 95.2794 19.8459C96.0702 19.8459 96.8328 19.9294 97.5388 20.0964C98.2449 20.2634 98.9228 20.5139 99.4876 20.9036C100.081 21.2655 100.561 21.7665 100.928 22.351C101.323 22.9355 101.549 23.6592 101.662 24.4942H98.132C97.9625 23.687 97.5953 23.1582 97.0305 22.8798C96.4374 22.6015 95.7878 22.4623 95.0252 22.4623C94.7992 22.4623 94.4886 22.4902 94.1779 22.518C93.839 22.5737 93.5565 22.6293 93.2459 22.7407C92.9634 22.852 92.7092 23.019 92.5115 23.2139C92.3138 23.4087 92.2009 23.687 92.2009 24.021C92.2009 24.4386 92.3421 24.7447 92.6245 24.9953C92.9069 25.2458 93.2741 25.4406 93.7542 25.6354C94.2061 25.8025 94.7428 25.9416 95.3359 26.053C95.929 26.1643 96.5503 26.3035 97.1717 26.4426C97.793 26.5818 98.3861 26.7488 98.9793 26.9437C99.5724 27.1385 100.109 27.389 100.561 27.7509C101.013 28.0849 101.408 28.5024 101.691 29.0034C101.973 29.5044 102.114 30.1446 102.114 30.8683C102.114 31.759 101.917 32.5105 101.493 33.1507C101.069 33.7631 100.533 34.2919 99.883 34.6816C99.2334 35.0713 98.4709 35.3496 97.6801 35.5445C96.861 35.7115 96.0702 35.8228 95.2794 35.8228C94.3191 35.8228 93.4153 35.7115 92.5963 35.4888C91.7772 35.2661 91.0429 34.9321 90.4498 34.5146C89.8567 34.0693 89.3765 33.5404 89.0376 32.8724C88.6987 32.2322 88.501 31.4528 88.4727 30.5343H91.8902V30.5621H91.9184ZM103.075 20.2912H105.645V15.7264H109.034V20.2634H112.084V22.7407H109.034V30.8126C109.034 31.1745 109.062 31.4528 109.09 31.7312C109.119 31.9817 109.203 32.2043 109.288 32.3714C109.401 32.5384 109.571 32.6775 109.768 32.761C109.994 32.8445 110.277 32.9002 110.672 32.9002C110.898 32.9002 111.152 32.9002 111.378 32.8724C111.604 32.8445 111.858 32.8167 112.084 32.761V35.3496C111.717 35.4053 111.35 35.4331 110.983 35.461C110.615 35.5166 110.277 35.5166 109.881 35.5166C108.977 35.5166 108.271 35.4331 107.735 35.2661C107.198 35.0991 106.774 34.8486 106.464 34.5424C106.153 34.2084 105.955 33.8187 105.842 33.3456C105.729 32.8724 105.673 32.2879 105.645 31.6755V22.7685H103.075V20.2356V20.2912ZM114.457 20.2912H117.648V22.351H117.705C118.185 21.4603 118.834 20.8479 119.682 20.4583C120.529 20.0686 121.433 19.8737 122.449 19.8737C123.664 19.8737 124.709 20.0686 125.613 20.5139C126.516 20.9314 127.251 21.4881 127.844 22.2397C128.437 22.9633 128.889 23.8262 129.171 24.8004C129.454 25.7746 129.623 26.8323 129.623 27.9179C129.623 28.9477 129.482 29.9219 129.228 30.8683C128.945 31.8147 128.55 32.6775 128.013 33.4012C127.477 34.1249 126.799 34.7094 125.952 35.1548C125.104 35.6001 124.144 35.8228 123.014 35.8228C122.534 35.8228 122.026 35.7672 121.546 35.6836C121.066 35.6001 120.585 35.461 120.133 35.2661C119.682 35.0713 119.258 34.8208 118.891 34.5146C118.495 34.2084 118.185 33.8466 117.931 33.4569H117.874V41H114.485V20.2912H114.457ZM126.291 27.8622C126.291 27.1942 126.206 26.5261 126.008 25.886C125.839 25.2458 125.556 24.6891 125.189 24.1881C124.822 23.687 124.37 23.2974 123.862 22.9912C123.325 22.685 122.704 22.5458 122.026 22.5458C120.614 22.5458 119.54 23.019 118.806 23.9932C118.1 24.9674 117.733 26.2756 117.733 27.89C117.733 28.6694 117.818 29.3652 118.015 30.0054C118.213 30.6456 118.467 31.2023 118.863 31.6755C119.23 32.1487 119.682 32.5105 120.218 32.7889C120.755 33.0672 121.348 33.2064 122.054 33.2064C122.845 33.2064 123.466 33.0394 124.003 32.7332C124.539 32.427 124.963 32.0095 125.33 31.5363C125.669 31.0353 125.923 30.4786 126.065 29.8384C126.206 29.1704 126.291 28.5302 126.291 27.8622ZM132.25 14.5295H135.639V17.6748H132.25V14.5295ZM132.25 20.2912H135.639V35.4053H132.25V20.2912ZM138.661 14.5295H142.05V35.4053H138.661V14.5295ZM152.387 35.8228C151.173 35.8228 150.071 35.628 149.111 35.2105C148.151 34.7929 147.36 34.2641 146.682 33.5682C146.033 32.8724 145.524 32.0095 145.185 31.0353C144.846 30.0611 144.649 28.9756 144.649 27.8344C144.649 26.6932 144.818 25.6354 145.185 24.6612C145.524 23.687 146.033 22.852 146.682 22.1283C147.332 21.4325 148.151 20.8758 149.111 20.4861C150.071 20.0964 151.173 19.8737 152.387 19.8737C153.602 19.8737 154.703 20.0686 155.664 20.4861C156.624 20.8758 157.415 21.4325 158.093 22.1283C158.742 22.8242 159.25 23.687 159.589 24.6612C159.928 25.6354 160.126 26.6932 160.126 27.8344C160.126 29.0034 159.957 30.0611 159.589 31.0353C159.222 32.0095 158.742 32.8445 158.093 33.5682C157.443 34.2641 156.624 34.8208 155.664 35.2105C154.703 35.6001 153.63 35.8228 152.387 35.8228ZM152.387 33.1786C153.122 33.1786 153.8 33.0115 154.336 32.7054C154.901 32.3992 155.325 31.9817 155.692 31.4807C156.059 30.9796 156.313 30.3951 156.483 29.7828C156.652 29.1426 156.737 28.5024 156.737 27.8344C156.737 27.1942 156.652 26.554 156.483 25.9138C156.313 25.2736 156.059 24.7169 155.692 24.2159C155.325 23.7149 154.873 23.3252 154.336 23.019C153.771 22.7128 153.122 22.5458 152.387 22.5458C151.653 22.5458 150.975 22.7128 150.439 23.019C149.874 23.3252 149.45 23.7427 149.083 24.2159C148.716 24.7169 148.462 25.2736 148.292 25.9138C148.123 26.554 148.038 27.1942 148.038 27.8344C148.038 28.5024 148.123 29.1426 148.292 29.7828C148.462 30.423 148.716 30.9796 149.083 31.4807C149.45 31.9817 149.902 32.3992 150.439 32.7054C151.003 33.0394 151.653 33.1786 152.387 33.1786ZM161.143 20.2912H163.713V15.7264H167.102V20.2634H170.152V22.7407H167.102V30.8126C167.102 31.1745 167.13 31.4528 167.159 31.7312C167.187 31.9817 167.272 32.2043 167.356 32.3714C167.469 32.5384 167.639 32.6775 167.836 32.761C168.062 32.8445 168.345 32.9002 168.74 32.9002C168.966 32.9002 169.22 32.9002 169.446 32.8724C169.672 32.8445 169.926 32.8167 170.152 32.761V35.3496C169.785 35.4053 169.418 35.4331 169.051 35.461C168.684 35.5166 168.345 35.5166 167.949 35.5166C167.046 35.5166 166.34 35.4331 165.803 35.2661C165.266 35.0991 164.843 34.8486 164.532 34.5424C164.221 34.2084 164.024 33.8187 163.911 33.3456C163.798 32.8724 163.741 32.2879 163.713 31.6755V22.7685H161.143V20.2356V20.2912Z" fill="#044B96"/>
<path d="M41.2781 14.5295H25.7726L20.9994 0L16.1981 14.5295L0.692505 14.5017L13.2325 23.4922L8.43117 38.0217L20.9712 29.0312L33.5112 38.0217L28.7381 23.4922L41.2781 14.5295Z" fill="#00B67A"/>
<path d="M29.8114 26.7769L28.7382 23.4924L20.9995 29.0315L29.8114 26.7769Z" fill="#005128"/>
</svg>
