<svg width="29" height="29" viewBox="0 0 29 29" fill="none" xmlns="http://www.w3.org/2000/svg">
<path fill-rule="evenodd" clip-rule="evenodd" d="M14.6666 28.4941C22.2605 28.4941 28.4166 22.3381 28.4166 14.7441C28.4166 7.15023 22.2605 0.994141 14.6666 0.994141C7.07271 0.994141 0.916626 7.15023 0.916626 14.7441C0.916626 22.3381 7.07271 28.4941 14.6666 28.4941ZM23.3306 10.1354C24.1412 10.0317 24.9236 9.81492 25.6494 9.485C25.1027 10.3051 24.424 11.0215 23.6322 11.5871C23.6416 11.7662 23.6416 11.9358 23.6416 12.1149C23.6416 17.4596 19.5601 23.6244 12.1322 23.6244C9.85101 23.6244 7.72067 22.9551 5.92968 21.8051C6.25017 21.8428 6.57066 21.8617 6.89116 21.8617C8.7142 21.8705 10.486 21.2588 11.9154 20.1273C11.0721 20.1119 10.2549 19.8326 9.5786 19.3288C8.90229 18.8249 8.40088 18.1218 8.14485 17.3182C8.74822 17.4372 9.37095 17.4146 9.96412 17.2523C8.11657 16.8846 6.72148 15.2445 6.72148 13.2838V13.2555C7.26821 13.5383 7.89034 13.7268 8.55961 13.7268C7.46616 13.0199 6.75919 11.7756 6.75919 10.3711C6.75919 9.63582 6.95714 8.93828 7.30591 8.34442C9.29486 10.7858 12.283 12.3977 15.6387 12.5674C15.5728 12.2752 15.5351 11.9641 15.5351 11.6436C15.5351 9.40959 17.3449 7.59975 19.5601 7.59975C20.7478 7.59975 21.7941 8.07106 22.5388 8.88172C23.4531 8.69319 24.3203 8.36328 25.1027 7.89196C24.8011 8.84401 24.1601 9.63582 23.3306 10.1354Z" fill="white"/>
</svg>
